<svg width="22" height="20" viewBox="0 0 22 20" fill="none" xmlns="http://www.w3.org/2000/svg">
<path d="M0.571533 10.8571L10.8572 0.571411L21.143 10.8571" stroke="#9E9E9E" stroke-width="1.14286" stroke-linecap="round" stroke-linejoin="round"/>
<path d="M2.85718 8.57141V17.7143C2.85718 18.0174 2.97759 18.3081 3.19191 18.5224C3.40624 18.7367 3.69693 18.8571 4.00003 18.8571H7.42861C7.73171 18.8571 8.0224 18.7367 8.23673 18.5224C8.45106 18.3081 8.57146 18.0174 8.57146 17.7143V13.1428C8.57146 12.8397 8.69187 12.549 8.9062 12.3347C9.12053 12.1204 9.41122 12 9.71432 12H12C12.3031 12 12.5938 12.1204 12.8082 12.3347C13.0225 12.549 13.1429 12.8397 13.1429 13.1428V17.7143C13.1429 18.0174 13.2633 18.3081 13.4776 18.5224C13.692 18.7367 13.9826 18.8571 14.2857 18.8571H17.7143C18.0174 18.8571 18.3081 18.7367 18.5224 18.5224C18.7368 18.3081 18.8572 18.0174 18.8572 17.7143V8.57141" stroke="#9E9E9E" stroke-width="1.14286" stroke-linecap="round" stroke-linejoin="round"/>
</svg>
