<svg width="173" height="270" viewBox="0 0 173 270" fill="none" xmlns="http://www.w3.org/2000/svg">
<rect width="173" height="270" rx="8" fill="#D9D9D9"/>
<rect width="173" height="270" rx="8" fill="url(#paint0_linear_43_1843)"/>
<path d="M12.623 246.047H10.8457L10.5234 248H9.81055L10.1328 246.047H9.08789L9.20508 245.344H10.2451L10.5381 243.586H9.50781L9.61523 242.883H10.6504L10.9727 240.93H11.6855L11.3633 242.883H13.1406L13.4629 240.93H14.1758L13.8535 242.883H14.9082L14.791 243.586H13.7412L13.4482 245.344H14.4883L14.3711 246.047H13.3359L13.0137 248H12.3008L12.623 246.047ZM12.7354 245.344L13.0283 243.586H11.251L10.958 245.344H12.7354ZM22.7891 248.791H22.0469V240.109H22.7891V248.791ZM15.4551 243.859C15.4551 243.251 15.5316 242.72 15.6846 242.268C15.8408 241.812 16.0589 241.46 16.3389 241.213C16.6188 240.965 16.946 240.842 17.3203 240.842C17.6882 240.845 18.012 240.965 18.292 241.203C18.5719 241.441 18.79 241.779 18.9463 242.219H20.3281V240.295H21.0605V248.352H20.3281V245.5H18.9463C18.79 245.939 18.5719 246.28 18.292 246.521C18.012 246.761 17.6882 246.88 17.3203 246.877C16.946 246.877 16.6188 246.755 16.3389 246.511C16.0589 246.263 15.8408 245.912 15.6846 245.456C15.5316 245 15.4551 244.468 15.4551 243.859ZM16.168 243.835C16.168 244.304 16.2135 244.714 16.3047 245.065C16.3991 245.414 16.5326 245.682 16.7051 245.871C16.8776 246.057 17.0827 246.148 17.3203 246.145C17.5547 246.148 17.7598 246.057 17.9355 245.871C18.1113 245.686 18.2464 245.42 18.3408 245.075C18.4352 244.73 18.4824 244.325 18.4824 243.859C18.4824 243.394 18.4352 242.989 18.3408 242.644C18.2464 242.295 18.1113 242.028 17.9355 241.843C17.7598 241.657 17.5547 241.564 17.3203 241.564C17.0859 241.564 16.8809 241.657 16.7051 241.843C16.5326 242.025 16.3991 242.287 16.3047 242.629C16.2135 242.971 16.168 243.373 16.168 243.835ZM19.1074 242.854C19.166 243.16 19.1953 243.495 19.1953 243.859C19.1953 244.211 19.1676 244.543 19.1123 244.855H20.3281V242.854H19.1074ZM31.4121 248.791H30.6797V244.24H29.4004V248.342H28.6973V240.305H29.4004V243.605H30.6797V240.109H31.4121V248.791ZM24.3125 241.174H27.5645V241.809H25.0742V245.988C25.7155 245.985 26.2591 245.967 26.7051 245.935C27.151 245.899 27.6035 245.835 28.0625 245.744L28.1309 246.389C27.6426 246.49 27.1608 246.556 26.6855 246.589C26.2103 246.621 25.6048 246.639 24.8691 246.643H24.3125V241.174ZM39.8398 248.811H39.0684V244.748H36.4316V244.113H39.0684V242.775H36.4316V242.15H39.0684V240.109H39.8398V248.811ZM33.1113 241.076H33.8828V246.125C34.6413 246.125 35.3037 246.104 35.8701 246.062C36.4398 246.019 37.0143 245.939 37.5938 245.822L37.6719 246.457C37.0501 246.581 36.4414 246.667 35.8457 246.716C35.2533 246.761 34.5632 246.786 33.7754 246.789H33.1113V241.076ZM47.0566 246.047H45.2793L44.957 248H44.2441L44.5664 246.047H43.5215L43.6387 245.344H44.6787L44.9717 243.586H43.9414L44.0488 242.883H45.084L45.4062 240.93H46.1191L45.7969 242.883H47.5742L47.8965 240.93H48.6094L48.2871 242.883H49.3418L49.2246 243.586H48.1748L47.8818 245.344H48.9219L48.8047 246.047H47.7695L47.4473 248H46.7344L47.0566 246.047ZM47.1689 245.344L47.4619 243.586H45.6846L45.3916 245.344H47.1689ZM54.1074 241.057H56.8906V241.662H54.1562C54.1758 241.997 54.3223 242.3 54.5957 242.57C54.8724 242.837 55.2386 243.057 55.6943 243.229C56.1501 243.402 56.653 243.518 57.2031 243.576L56.9492 244.172C56.2103 244.084 55.5527 243.9 54.9766 243.62C54.4004 243.34 53.987 242.98 53.7363 242.541C53.4824 242.984 53.0674 243.345 52.4912 243.625C51.9183 243.902 51.2624 244.084 50.5234 244.172L50.2695 243.576C50.8164 243.518 51.3161 243.402 51.7686 243.229C52.2243 243.057 52.5905 242.837 52.8672 242.57C53.1439 242.3 53.292 241.997 53.3115 241.662H50.6016V241.057H53.3555V240.1H54.1074V241.057ZM49.7715 244.758H57.7207V245.393H49.7715V244.758ZM50.8066 246.145H51.5781V247.961H56.8125V248.605H50.8066V246.145ZM65.8555 248.791H65.1133V240.109H65.8555V248.791ZM58.7656 241.184H62.0371V241.818H59.5078V246.057C60.1816 246.05 60.735 246.031 61.168 245.998C61.6042 245.962 62.0436 245.894 62.4863 245.793L62.5645 246.447C62.0827 246.545 61.6058 246.612 61.1338 246.647C60.6618 246.68 60.0547 246.698 59.3125 246.701H58.7656V241.184ZM61.4512 243.43H63.3457V240.324H64.0781V248.342H63.3457V244.074H61.4512V243.43ZM70.4551 244.074H68.1016V246.008C68.7005 246.001 69.236 245.983 69.708 245.954C70.18 245.922 70.6797 245.858 71.207 245.764L71.2656 246.398C70.7025 246.499 70.1686 246.566 69.6641 246.599C69.1595 246.631 68.5833 246.649 67.9355 246.652H67.3594V243.439H69.7227V241.711H67.3398V241.076H70.4551V244.074ZM70.875 243.244H71.9883V240.324H72.7109V248.332H71.9883V243.869H70.875V243.244ZM73.7559 240.109H74.4883V248.791H73.7559V240.109ZM81.4902 246.047H79.7129L79.3906 248H78.6777L79 246.047H77.9551L78.0723 245.344H79.1123L79.4053 243.586H78.375L78.4824 242.883H79.5176L79.8398 240.93H80.5527L80.2305 242.883H82.0078L82.3301 240.93H83.043L82.7207 242.883H83.7754L83.6582 243.586H82.6084L82.3154 245.344H83.3555L83.2383 246.047H82.2031L81.8809 248H81.168L81.4902 246.047ZM81.6025 245.344L81.8955 243.586H80.1182L79.8252 245.344H81.6025ZM91.1191 241.193C91.1191 241.659 91.1061 242.076 91.0801 242.443C91.0573 242.808 91.0003 243.218 90.9092 243.674H92.125V244.299H84.2246V243.674H90.1377C90.2126 243.335 90.2712 242.961 90.3135 242.551L85.1133 242.775L85.0156 242.16L90.3477 241.999C90.3542 241.885 90.3574 241.721 90.3574 241.506V241.193V241.164H85.2207V240.539H91.1191V241.193ZM85.1523 245.139H91.1875V247.141H85.9336V248.059H91.4902V248.674H85.1719V246.555H90.4258V245.734H85.1523V245.139ZM96.4023 244.094H93.8926V246.066C94.459 246.063 94.9814 246.045 95.46 246.013C95.9385 245.98 96.4382 245.92 96.959 245.832L97.0273 246.457C96.4544 246.558 95.9124 246.626 95.4014 246.662C94.8936 246.695 94.332 246.711 93.7168 246.711H93.1504V243.459H95.6602V241.701H93.1309V241.057H96.4023V244.094ZM97.5645 240.305H98.2676V243.547H99.5469V240.109H100.279V248.791H99.5469V244.182H98.2676V248.342H97.5645V240.305ZM104.576 241.369C104.573 241.783 104.664 242.18 104.85 242.561C105.035 242.938 105.294 243.27 105.626 243.557C105.961 243.843 106.344 244.061 106.773 244.211L106.383 244.816C105.878 244.631 105.436 244.357 105.055 243.996C104.674 243.635 104.386 243.215 104.19 242.736C104.002 243.251 103.715 243.703 103.331 244.094C102.947 244.481 102.499 244.774 101.988 244.973L101.588 244.367C102.018 244.208 102.398 243.977 102.73 243.674C103.066 243.368 103.326 243.016 103.512 242.619C103.701 242.219 103.795 241.802 103.795 241.369V240.539H104.576V241.369ZM102.828 245.773H108.668V248.791H107.906V246.408H102.828V245.773ZM107.906 240.109H108.668V245.344H107.906V240.109ZM12.623 258.047H10.8457L10.5234 260H9.81055L10.1328 258.047H9.08789L9.20508 257.344H10.2451L10.5381 255.586H9.50781L9.61523 254.883H10.6504L10.9727 252.93H11.6855L11.3633 254.883H13.1406L13.4629 252.93H14.1758L13.8535 254.883H14.9082L14.791 255.586H13.7412L13.4482 257.344H14.4883L14.3711 258.047H13.3359L13.0137 260H12.3008L12.623 258.047ZM12.7354 257.344L13.0283 255.586H11.251L10.958 257.344H12.7354ZM22.5449 258.486H21.7734V255.156H19.9863V254.521H21.7734V252.119H22.5449V258.486ZM15.3867 256.748C15.8099 256.598 16.1891 256.379 16.5244 256.089C16.8597 255.799 17.1217 255.465 17.3105 255.088C17.4993 254.707 17.5938 254.313 17.5938 253.906V253.457H15.6309V252.822H20.3086V253.457H18.3652V253.906C18.3652 254.277 18.4548 254.639 18.6338 254.99C18.8161 255.342 19.0684 255.654 19.3906 255.928C19.7161 256.201 20.0872 256.41 20.5039 256.553L20.1035 257.168C19.6185 256.992 19.1921 256.732 18.8242 256.387C18.4596 256.038 18.1829 255.638 17.9941 255.186C17.8053 255.69 17.5189 256.133 17.1348 256.514C16.7507 256.895 16.3014 257.181 15.7871 257.373L15.3867 256.748ZM16.9688 257.91H17.7402V259.961H22.7891V260.605H16.9688V257.91ZM31.9004 257.07H23.9902V256.445H27.5645V255.391H24.9961V252.461H30.9238V253.096H25.7578V254.756H31.002V255.391H28.3262V256.445H31.9004V257.07ZM24.8691 257.92H30.9336V260.859H30.1719V258.545H24.8691V257.92ZM35.7188 254.443C35.7188 254.958 35.8245 255.469 36.0361 255.977C36.2477 256.481 36.5326 256.93 36.8906 257.324C37.252 257.718 37.6458 258.011 38.0723 258.203L37.6035 258.809C37.1055 258.568 36.6562 258.205 36.2559 257.72C35.8555 257.231 35.5511 256.68 35.3428 256.064C35.1442 256.719 34.8431 257.305 34.4395 257.822C34.0358 258.34 33.5801 258.727 33.0723 258.984L32.584 258.34C33.0137 258.145 33.4092 257.843 33.7705 257.437C34.1318 257.03 34.4183 256.564 34.6299 256.04C34.8447 255.513 34.9538 254.98 34.957 254.443V252.861H35.7188V254.443ZM39.0195 252.109H39.791V260.811H39.0195V252.109ZM45.2598 260.771H40.8359V260H45.2598V260.771ZM50.3379 253.525C50.3346 254.089 50.3184 254.629 50.2891 255.146C50.2598 255.664 50.1914 256.273 50.084 256.973L49.3125 256.904C49.4818 255.869 49.5664 254.857 49.5664 253.867V253.701H45.9238V253.076H50.3379V253.525ZM45.4355 258.242C46.2656 258.236 46.8906 258.228 47.3105 258.218V255.557H48.0625V258.193C49.1335 258.154 50.084 258.086 50.9141 257.988L50.9531 258.564C49.6087 258.773 47.9388 258.877 45.9434 258.877H45.5332L45.4355 258.242ZM51.4609 252.109H52.2227V255.742H53.6289V256.406H52.2227V260.791H51.4609V252.109ZM62.0762 256.543H54.166V255.908H57.7305V255.049H55.1914V252.402H61.0508V255.049H58.4824V255.908H62.0762V256.543ZM55.123 257.266H61.0605V259.209H55.9043V260.088H61.3242V260.693H55.1426V258.633H60.3086V257.861H55.123V257.266ZM60.2891 254.434V253.018H55.9531V254.434H60.2891ZM69.9766 256.768H69.2148V252.109H69.9766V256.768ZM63.0137 254.531C63.0137 254.141 63.1097 253.794 63.3018 253.491C63.4971 253.188 63.7673 252.954 64.1123 252.788C64.4606 252.619 64.8529 252.536 65.2891 252.539C65.7253 252.536 66.1159 252.619 66.4609 252.788C66.806 252.954 67.0762 253.188 67.2715 253.491C67.4668 253.794 67.5645 254.141 67.5645 254.531C67.5645 254.919 67.4668 255.264 67.2715 255.566C67.0762 255.869 66.806 256.105 66.4609 256.274C66.1159 256.44 65.7253 256.523 65.2891 256.523C64.8529 256.523 64.4606 256.44 64.1123 256.274C63.7673 256.105 63.4971 255.869 63.3018 255.566C63.1097 255.264 63.0137 254.919 63.0137 254.531ZM63.7656 254.531C63.7624 254.792 63.8258 255.024 63.9561 255.229C64.0863 255.435 64.2669 255.596 64.498 255.713C64.7292 255.83 64.9928 255.889 65.2891 255.889C65.582 255.889 65.8441 255.83 66.0752 255.713C66.3063 255.596 66.487 255.435 66.6172 255.229C66.7474 255.024 66.8125 254.792 66.8125 254.531C66.8125 254.271 66.7474 254.038 66.6172 253.833C66.487 253.628 66.3063 253.468 66.0752 253.354C65.8441 253.241 65.582 253.184 65.2891 253.184C64.9928 253.184 64.7292 253.241 64.498 253.354C64.2669 253.468 64.0863 253.628 63.9561 253.833C63.8258 254.038 63.7624 254.271 63.7656 254.531ZM64.3516 257.207H65.1133V258.262H69.2148V257.207H69.9766V260.674H64.3516V257.207ZM69.2148 260.049V258.877H65.1133V260.049H69.2148ZM77.2324 258.047H75.4551L75.1328 260H74.4199L74.7422 258.047H73.6973L73.8145 257.344H74.8545L75.1475 255.586H74.1172L74.2246 254.883H75.2598L75.582 252.93H76.2949L75.9727 254.883H77.75L78.0723 252.93H78.7852L78.4629 254.883H79.5176L79.4004 255.586H78.3506L78.0576 257.344H79.0977L78.9805 258.047H77.9453L77.623 260H76.9102L77.2324 258.047ZM77.3447 257.344L77.6377 255.586H75.8604L75.5674 257.344H77.3447ZM87.125 258.467H86.3633V252.119H87.125V258.467ZM80.1621 254.854C80.1621 254.443 80.2598 254.077 80.4551 253.755C80.6536 253.433 80.9255 253.18 81.2705 252.998C81.6188 252.816 82.0078 252.725 82.4375 252.725C82.8672 252.725 83.2546 252.816 83.5996 252.998C83.9447 253.18 84.2165 253.433 84.415 253.755C84.6136 254.077 84.7129 254.443 84.7129 254.854C84.7129 255.267 84.6136 255.636 84.415 255.962C84.2165 256.287 83.9447 256.541 83.5996 256.724C83.2546 256.903 82.8672 256.992 82.4375 256.992C82.0078 256.992 81.6188 256.903 81.2705 256.724C80.9255 256.541 80.6536 256.287 80.4551 255.962C80.2598 255.636 80.1621 255.267 80.1621 254.854ZM80.9141 254.854C80.9108 255.137 80.9743 255.391 81.1045 255.615C81.238 255.837 81.4202 256.009 81.6514 256.133C81.8857 256.257 82.1478 256.318 82.4375 256.318C82.724 256.318 82.9827 256.257 83.2139 256.133C83.445 256.009 83.6273 255.837 83.7607 255.615C83.8942 255.391 83.9609 255.137 83.9609 254.854C83.9609 254.574 83.8942 254.325 83.7607 254.106C83.6273 253.885 83.445 253.713 83.2139 253.589C82.9827 253.462 82.724 253.398 82.4375 253.398C82.1478 253.398 81.8857 253.46 81.6514 253.584C81.4202 253.708 81.238 253.88 81.1045 254.102C80.9743 254.323 80.9108 254.574 80.9141 254.854ZM81.5195 257.822H82.2812V259.961H87.3984V260.605H81.5195V257.822ZM95.3867 254.756H96.6953V255.4H95.3867V258.467H94.6152V252.109H95.3867V254.756ZM88.6094 256.846C89.306 256.628 89.9147 256.349 90.4355 256.011C90.9564 255.672 91.3682 255.283 91.6709 254.844C91.9769 254.404 92.1559 253.932 92.208 253.428H88.9707V252.783H93.043C93.043 253.516 92.877 254.188 92.5449 254.8C92.2129 255.412 91.7393 255.942 91.124 256.392C90.5088 256.841 89.7812 257.197 88.9414 257.461L88.6094 256.846ZM89.9473 257.822H90.709V259.961H95.7871V260.605H89.9473V257.822ZM101.227 260.771H96.8027V260H101.227V260.771ZM105.133 255.391H106.451V252.295H107.184V260.352H106.451V256.025H105.133V258.457H101.812V253.125H105.133V255.391ZM104.41 257.842V253.74H102.535V257.842H104.41ZM108.189 252.109H108.932V260.791H108.189V252.109ZM117.164 257.432H111.158V252.861H117.066V253.506H111.939V254.795H116.881V255.41H111.939V256.807H117.164V257.432ZM110.133 259.023H118.082V259.658H110.133V259.023ZM126.725 259.717H118.775V259.072H122.35V257.432H119.771V254.756H124.967V253.389H119.752V252.754H125.719V255.381H120.533V256.797H125.924V257.432H123.102V259.072H126.725V259.717ZM134.43 255.117H131.754V256.26H135.338V256.895H127.418V256.26H131.002V255.117H128.502V252.275H129.264V254.492H134.43V255.117ZM128.443 257.744H134.332V260.674H128.443V257.744ZM133.59 260.049V258.369H129.195V260.049H133.59ZM140.045 260.771H135.621V260H140.045V260.771ZM144.664 252.92C144.664 253.314 144.815 253.69 145.118 254.048C145.424 254.403 145.82 254.702 146.305 254.946C146.793 255.187 147.301 255.345 147.828 255.42L147.516 256.045C147.06 255.97 146.619 255.84 146.192 255.654C145.766 255.465 145.383 255.231 145.045 254.951C144.71 254.668 144.452 254.354 144.273 254.009C144.094 254.357 143.837 254.671 143.502 254.951C143.167 255.231 142.786 255.465 142.359 255.654C141.933 255.84 141.49 255.97 141.031 256.045L140.719 255.42C141.249 255.345 141.757 255.187 142.242 254.946C142.727 254.705 143.119 254.408 143.419 254.053C143.722 253.698 143.873 253.32 143.873 252.92V252.422H144.664V252.92ZM140.309 257.002H148.219V257.646H144.625V260.791H143.873V257.646H140.309V257.002ZM152.076 253.545C152.076 253.916 152.172 254.271 152.364 254.609C152.556 254.948 152.822 255.244 153.16 255.498C153.499 255.752 153.883 255.944 154.312 256.074L153.922 256.68C153.414 256.517 152.965 256.27 152.574 255.938C152.187 255.602 151.896 255.21 151.7 254.761C151.508 255.243 151.215 255.664 150.821 256.025C150.431 256.383 149.977 256.65 149.459 256.826L149.059 256.221C149.492 256.084 149.877 255.881 150.216 255.61C150.558 255.34 150.825 255.026 151.017 254.668C151.209 254.31 151.305 253.936 151.305 253.545V253.32H149.273V252.695H154.078V253.32H152.076V253.545ZM150.494 257.236H151.256V258.291H155.357V257.236H156.119V260.674H150.494V257.236ZM155.357 260.049V258.906H151.256V260.049H155.357ZM155.357 252.109H156.119V256.807H155.357V252.109ZM164.312 255.645H165.719V256.289H164.312V260.791H163.551V252.109H164.312V255.645ZM157.652 258.535C158.766 257.982 159.628 257.295 160.24 256.475C160.852 255.654 161.202 254.727 161.29 253.691H158.053V253.047H162.066C162.063 254.336 161.738 255.506 161.09 256.558C160.442 257.609 159.439 258.47 158.082 259.141L157.652 258.535Z" fill="black"/>
<path d="M14.1797 223.613C14.9453 223.617 15.6191 223.711 16.2012 223.895C16.7832 224.074 17.2344 224.33 17.5547 224.662C17.875 224.994 18.0352 225.383 18.0352 225.828C18.0352 226.27 17.873 226.656 17.5488 226.988C17.2285 227.316 16.7773 227.568 16.1953 227.744C15.6172 227.92 14.9453 228.008 14.1797 228.008C13.4102 228.008 12.7324 227.92 12.1465 227.744C11.5645 227.568 11.1133 227.316 10.793 226.988C10.4727 226.656 10.3125 226.27 10.3125 225.828C10.3125 225.383 10.4727 224.994 10.793 224.662C11.1133 224.33 11.5645 224.074 12.1465 223.895C12.7324 223.711 13.4102 223.617 14.1797 223.613ZM9.31641 228.582H19.0664V229.777H16.7812V231.676H15.2812V229.777H14.1562V231.676H12.6445V229.777H9.31641V228.582ZM10.4297 230.75H11.9297V232.695H18.1055V233.891H10.4297V230.75ZM11.9297 225.828C11.9258 226.152 12.123 226.402 12.5215 226.578C12.9238 226.75 13.4766 226.84 14.1797 226.848C14.8789 226.84 15.4277 226.75 15.8262 226.578C16.2285 226.402 16.4297 226.152 16.4297 225.828C16.4297 225.492 16.2305 225.236 15.832 225.061C15.4336 224.885 14.8828 224.797 14.1797 224.797C13.4766 224.797 12.9238 224.887 12.5215 225.066C12.123 225.242 11.9258 225.496 11.9297 225.828ZM23.7188 225.828C23.7227 226.516 23.8184 227.172 24.0059 227.797C24.1934 228.422 24.4805 228.977 24.8672 229.461C25.2578 229.941 25.7383 230.305 26.3086 230.551L25.3945 231.746C24.8164 231.465 24.3242 231.072 23.918 230.568C23.5156 230.061 23.1992 229.467 22.9688 228.787C22.7305 229.514 22.4023 230.148 21.9844 230.691C21.5664 231.23 21.0625 231.645 20.4727 231.934L19.5352 230.715C20.1211 230.449 20.6133 230.062 21.0117 229.555C21.4141 229.047 21.7129 228.473 21.9082 227.832C22.1035 227.188 22.2031 226.52 22.207 225.828V224.234H23.7188V225.828ZM25.1133 226.766H27.2109V223.414H28.6875V234.102H27.2109V227.973H25.1133V226.766ZM39.8086 230.598H35.6367V234.09H34.1602V230.598H30.0469V229.379H39.8086V230.598ZM31.0312 226.191C31.0312 225.703 31.1934 225.277 31.5176 224.914C31.8418 224.547 32.2949 224.264 32.877 224.064C33.4629 223.865 34.1367 223.766 34.8984 223.766C35.6602 223.766 36.334 223.865 36.9199 224.064C37.5098 224.264 37.9688 224.547 38.2969 224.914C38.625 225.277 38.7891 225.703 38.7891 226.191C38.7891 226.668 38.625 227.086 38.2969 227.445C37.9688 227.805 37.5098 228.082 36.9199 228.277C36.3301 228.473 35.6562 228.57 34.8984 228.57C34.1406 228.57 33.4688 228.473 32.8828 228.277C32.2969 228.082 31.8418 227.805 31.5176 227.445C31.1934 227.086 31.0312 226.668 31.0312 226.191ZM32.5664 226.191C32.5664 226.441 32.6602 226.656 32.8477 226.836C33.0352 227.016 33.3047 227.152 33.6562 227.246C34.0078 227.336 34.4219 227.383 34.8984 227.387C35.6289 227.383 36.2012 227.277 36.6152 227.07C37.0332 226.859 37.2422 226.566 37.2422 226.191C37.2422 225.801 37.0332 225.5 36.6152 225.289C36.2012 225.074 35.6289 224.965 34.8984 224.961C34.1719 224.965 33.5996 225.074 33.1816 225.289C32.7676 225.5 32.5625 225.801 32.5664 226.191Z" fill="black"/>
<defs>
<linearGradient id="paint0_linear_43_1843" x1="86.5" y1="0" x2="86.5" y2="270" gradientUnits="userSpaceOnUse">
<stop offset="0.346154" stop-color="#D9D9D9" stop-opacity="0"/>
<stop offset="1" stop-color="#FFC2E2"/>
</linearGradient>
</defs>
</svg>
